<?xml version="1.0" encoding="utf-8"?>
<!-- Generator: Adobe Illustrator 21.0.0, SVG Export Plug-In . SVG Version: 6.00 Build 0)  -->
<svg version="1.1" id="Layer_1" xmlns="http://www.w3.org/2000/svg" xmlns:xlink="http://www.w3.org/1999/xlink" x="0px" y="0px"
	 viewBox="0 0 80 69.5" style="enable-background:new 0 0 80 69.5;" xml:space="preserve">
<style type="text/css">
	.st0{fill:#455B65;}
</style>
<title>37_android_history</title>
<g>
	<polygon class="st0" points="41.7,19.3 41.7,36.2 57,46.8 59.9,42.6 46.7,33.6 46.7,19.3 	"/>
	<path class="st0" d="M45.1,0C27.2,0,12.3,13.9,11,31.8H0.1l14,15.2l14-15.2H17.4C18.7,16.5,32.2,5.1,47.6,6.4S74.3,21.3,73,36.6
		C71.6,52,58.1,63.3,42.8,62c-5.5-0.5-10.7-2.5-15-6l-3.9,5.1c14.8,11.7,36.4,9.2,48.1-5.7s9.2-36.4-5.7-48.1
		C60.3,2.6,52.8,0,45.1,0z"/>
</g>
</svg>
