<?xml version="1.0" encoding="utf-8"?>
<!-- Generator: Adobe Illustrator 21.0.0, SVG Export Plug-In . SVG Version: 6.00 Build 0)  -->
<svg version="1.1" id="Layer_1" xmlns="http://www.w3.org/2000/svg" xmlns:xlink="http://www.w3.org/1999/xlink" x="0px" y="0px"
	 viewBox="0 0 300 100" style="enable-background:new 0 0 300 100;" xml:space="preserve">
<style type="text/css">
	.st0{fill:#E6E6E6;}
</style>
<g>
	<path class="st0" d="M21.4,57.2v12.1c-0.5,0.1-1.2,0.3-2.2,0.4c-1,0.1-2,0.2-2.9,0.2c-1,0-1.8-0.1-2.6-0.2
		c-0.7-0.1-1.3-0.4-1.8-0.8c-0.5-0.4-0.9-0.9-1.1-1.6s-0.4-1.6-0.4-2.6V35c0-0.9,0.2-1.6,0.7-2c0.5-0.5,1.1-0.9,2-1.2
		c1.4-0.5,3.1-0.9,5-1.1c1.9-0.2,3.9-0.3,6-0.3c5.8,0,10.2,1.2,13.1,3.7c2.9,2.4,4.4,5.7,4.4,9.9c0,2.6-0.7,4.8-2,6.7
		c-1.3,1.8-2.9,3.3-4.8,4.3c1.5,2.1,3,4,4.5,5.8c1.5,1.8,2.6,3.4,3.5,4.9c-0.4,1.5-1.2,2.6-2.3,3.4c-1.1,0.8-2.4,1.2-3.7,1.2
		c-0.9,0-1.7-0.1-2.4-0.3c-0.7-0.2-1.3-0.5-1.8-0.9s-1-0.8-1.4-1.4c-0.4-0.5-0.8-1.1-1.2-1.8l-5.3-8.5H21.4z M25.3,48.9
		c1.6,0,2.9-0.4,3.8-1.2c0.9-0.8,1.4-2,1.4-3.6c0-1.6-0.5-2.8-1.5-3.6c-1-0.8-2.7-1.2-4.9-1.2c-0.6,0-1.1,0-1.5,0.1
		c-0.4,0-0.8,0.1-1.3,0.2v9.5H25.3z"/>
	<path class="st0" d="M60.5,38c2.3,0,4.3,0.2,6.2,0.7c1.9,0.5,3.5,1.2,4.8,2.1c1.3,0.9,2.3,2.1,3.1,3.6c0.7,1.4,1.1,3.2,1.1,5.1
		v14.1c0,1.1-0.3,2-0.9,2.7c-0.6,0.7-1.3,1.3-2.2,1.8c-2.7,1.6-6.6,2.5-11.5,2.5c-2.2,0-4.2-0.2-6-0.6c-1.8-0.4-3.3-1-4.6-1.9
		c-1.3-0.8-2.3-1.9-3-3.2c-0.7-1.3-1-2.8-1-4.5c0-2.9,0.9-5.1,2.6-6.7c1.7-1.6,4.4-2.5,8-2.9l8.3-0.9v-0.4c0-1.2-0.5-2.1-1.6-2.6
		C62.6,46.3,61,46,59,46c-1.6,0-3.1,0.2-4.7,0.5c-1.5,0.3-2.9,0.8-4.1,1.3c-0.5-0.4-1-1-1.4-1.7c-0.4-0.8-0.6-1.6-0.6-2.4
		c0-1.1,0.3-2,0.8-2.6c0.5-0.7,1.3-1.2,2.4-1.7c1.2-0.5,2.7-0.8,4.3-1C57.5,38.1,59.1,38,60.5,38z M61,62.8c0.7,0,1.5-0.1,2.4-0.2
		c0.9-0.1,1.5-0.3,1.9-0.6v-5l-4.5,0.4c-1.2,0.1-2.1,0.3-2.9,0.8c-0.8,0.4-1.1,1.1-1.1,1.9s0.3,1.5,1,2C58.4,62.5,59.5,62.8,61,62.8
		z"/>
	<path class="st0" d="M108,60.5c0,3.2-1.2,5.7-3.6,7.5c-2.4,1.8-5.9,2.7-10.6,2.7c-1.8,0-3.4-0.1-4.9-0.4c-1.5-0.3-2.8-0.6-3.9-1.2
		c-1.1-0.5-1.9-1.2-2.5-2c-0.6-0.8-0.9-1.7-0.9-2.8c0-1,0.2-1.9,0.6-2.6c0.4-0.7,0.9-1.3,1.5-1.7c1.2,0.7,2.6,1.3,4.2,1.8
		c1.6,0.5,3.4,0.8,5.5,0.8c1.3,0,2.3-0.2,3-0.6c0.7-0.4,1-0.9,1-1.5c0-0.6-0.3-1-0.8-1.4c-0.5-0.3-1.3-0.6-2.5-0.8l-1.9-0.4
		c-3.7-0.7-6.4-1.8-8.2-3.4c-1.8-1.5-2.7-3.7-2.7-6.6c0-1.6,0.3-3,1-4.2c0.7-1.3,1.6-2.3,2.8-3.2c1.2-0.8,2.7-1.5,4.4-2
		s3.6-0.7,5.6-0.7c1.6,0,3,0.1,4.4,0.3c1.4,0.2,2.6,0.6,3.6,1c1,0.5,1.8,1.1,2.4,1.8c0.6,0.7,0.9,1.6,0.9,2.6c0,1-0.2,1.8-0.5,2.5
		c-0.4,0.7-0.8,1.3-1.4,1.7c-0.3-0.2-0.8-0.4-1.5-0.7c-0.7-0.2-1.4-0.4-2.2-0.6c-0.8-0.2-1.6-0.3-2.4-0.5c-0.8-0.1-1.6-0.2-2.2-0.2
		c-1.4,0-2.5,0.2-3.2,0.5c-0.8,0.3-1.1,0.8-1.1,1.5c0,0.5,0.2,0.8,0.6,1.1s1.2,0.6,2.4,0.8l2,0.4c4,0.9,6.9,2.2,8.6,3.8
		C107.2,55.8,108,57.9,108,60.5z"/>
	<path class="st0" d="M145.2,54.3c0,2.6-0.4,4.9-1.2,7c-0.8,2-1.9,3.7-3.4,5.1s-3.2,2.4-5.2,3.1c-2,0.7-4.3,1.1-6.7,1.1
		c-2.5,0-4.7-0.4-6.7-1.1c-2-0.8-3.7-1.8-5.2-3.2s-2.6-3.1-3.4-5.1c-0.8-2-1.2-4.3-1.2-6.8c0-2.5,0.4-4.7,1.2-6.7
		c0.8-2,1.9-3.7,3.4-5.1c1.4-1.4,3.2-2.5,5.2-3.2c2-0.8,4.3-1.1,6.7-1.1c2.5,0,4.7,0.4,6.7,1.2c2,0.8,3.7,1.9,5.2,3.3
		s2.6,3.1,3.4,5.1C144.8,49.6,145.2,51.9,145.2,54.3z M123.2,54.3c0,2.6,0.5,4.5,1.5,5.9c1,1.4,2.4,2,4.1,2c1.8,0,3.1-0.7,4.1-2.1
		c0.9-1.4,1.4-3.3,1.4-5.9c0-2.5-0.5-4.5-1.4-5.8c-1-1.4-2.3-2-4.1-2s-3.1,0.7-4.1,2C123.6,49.8,123.2,51.8,123.2,54.3z"/>
	<path class="st0" d="M150.2,30.5c0-1.6,0.5-2.9,1.6-4c1.1-1.1,2.5-1.6,4.3-1.6c1.8,0,3.2,0.5,4.3,1.6c1.1,1.1,1.6,2.4,1.6,4
		c0,1.6-0.5,2.9-1.6,4c-1.1,1.1-2.5,1.6-4.3,1.6c-1.8,0-3.2-0.5-4.3-1.6C150.7,33.4,150.2,32.1,150.2,30.5z M161.4,69.5
		c-0.5,0.1-1.1,0.2-2,0.3c-0.9,0.1-1.8,0.2-2.7,0.2c-0.9,0-1.8-0.1-2.5-0.2c-0.7-0.1-1.4-0.4-1.9-0.8c-0.5-0.4-0.9-0.9-1.2-1.5
		c-0.3-0.7-0.4-1.5-0.4-2.6V39.4c0.5-0.1,1.1-0.2,2-0.3c0.9-0.1,1.8-0.2,2.7-0.2c0.9,0,1.8,0.1,2.5,0.2c0.7,0.1,1.4,0.4,1.9,0.8
		s0.9,0.9,1.2,1.5c0.3,0.7,0.4,1.5,0.4,2.6V69.5z"/>
	<path class="st0" d="M187.5,69.8c-1.8,0-3.2-0.5-4.3-1.6s-1.6-2.5-1.6-4.3V31.4c0.5-0.1,1.2-0.2,2.2-0.3c1-0.1,2-0.2,2.9-0.2
		c1,0,1.8,0.1,2.6,0.2c0.7,0.1,1.4,0.4,1.9,0.8c0.5,0.4,0.9,0.9,1.1,1.6s0.4,1.6,0.4,2.6v24.9h14.4c0.3,0.5,0.6,1.1,0.8,1.9
		c0.3,0.8,0.4,1.6,0.4,2.4c0,1.7-0.4,2.9-1.1,3.6c-0.7,0.7-1.7,1-2.8,1H187.5z"/>
	<path class="st0" d="M212.9,30.5c0-1.6,0.5-2.9,1.6-4c1.1-1.1,2.5-1.6,4.3-1.6c1.8,0,3.2,0.5,4.3,1.6c1.1,1.1,1.6,2.4,1.6,4
		c0,1.6-0.5,2.9-1.6,4c-1.1,1.1-2.5,1.6-4.3,1.6c-1.8,0-3.2-0.5-4.3-1.6C213.4,33.4,212.9,32.1,212.9,30.5z M224.1,69.5
		c-0.5,0.1-1.1,0.2-2,0.3c-0.9,0.1-1.8,0.2-2.7,0.2c-0.9,0-1.8-0.1-2.5-0.2c-0.7-0.1-1.4-0.4-1.9-0.8c-0.5-0.4-0.9-0.9-1.2-1.5
		c-0.3-0.7-0.4-1.5-0.4-2.6V39.4c0.5-0.1,1.1-0.2,2-0.3c0.9-0.1,1.8-0.2,2.7-0.2c0.9,0,1.8,0.1,2.5,0.2c0.7,0.1,1.4,0.4,1.9,0.8
		s0.9,0.9,1.2,1.5c0.3,0.7,0.4,1.5,0.4,2.6V69.5z"/>
	<path class="st0" d="M251.4,68.8c-0.6,0.5-1.4,0.8-2.6,1.1c-1.1,0.3-2.4,0.4-3.8,0.4c-1.6,0-3.1-0.2-4.3-0.6c-1.2-0.4-2-1.1-2.5-2
		c-0.4-0.7-0.8-1.7-1.4-3c-0.5-1.3-1.1-2.7-1.7-4.3c-0.6-1.6-1.2-3.3-1.8-5.1c-0.6-1.8-1.2-3.6-1.8-5.4c-0.6-1.8-1.1-3.5-1.5-5.1
		c-0.5-1.6-0.8-3.1-1.1-4.3c0.6-0.6,1.4-1.1,2.4-1.5c1-0.4,2.1-0.7,3.2-0.7c1.5,0,2.7,0.3,3.6,0.9c0.9,0.6,1.6,1.8,2.1,3.4l2.5,9.6
		c0.5,1.9,0.9,3.6,1.3,5.1c0.4,1.5,0.7,2.7,0.9,3.6h0.3c0.8-3.1,1.6-6.6,2.5-10.3c0.9-3.8,1.7-7.5,2.4-11.2c0.7-0.4,1.5-0.7,2.4-0.9
		c0.9-0.2,1.8-0.3,2.6-0.3c1.5,0,2.7,0.3,3.7,0.9c1,0.6,1.5,1.7,1.5,3.3c0,0.7-0.2,1.6-0.5,2.9c-0.3,1.3-0.7,2.7-1.2,4.3
		c-0.5,1.6-1,3.3-1.7,5.1c-0.7,1.8-1.3,3.6-2,5.3c-0.7,1.7-1.3,3.3-2,4.8C252.5,66.6,251.9,67.8,251.4,68.8z"/>
	<path class="st0" d="M281.1,70.6c-2.5,0-4.8-0.3-6.9-1c-2.1-0.7-4-1.7-5.5-3.1c-1.6-1.4-2.8-3.1-3.7-5.2c-0.9-2.1-1.4-4.6-1.4-7.4
		c0-2.8,0.5-5.2,1.4-7.2c0.9-2,2.1-3.6,3.6-4.9c1.5-1.3,3.1-2.2,5-2.8c1.9-0.6,3.8-0.9,5.8-0.9c2.2,0,4.3,0.3,6.1,1s3.4,1.6,4.7,2.8
		c1.3,1.2,2.4,2.6,3.1,4.2c0.7,1.6,1.1,3.4,1.1,5.4c0,1.4-0.4,2.5-1.2,3.3c-0.8,0.8-1.9,1.2-3.3,1.4l-15.6,2.3
		c0.5,1.4,1.4,2.4,2.8,3.1c1.4,0.7,3.1,1,4.9,1c1.7,0,3.3-0.2,4.9-0.7c1.5-0.4,2.8-1,3.7-1.5c0.7,0.4,1.2,1,1.7,1.8
		c0.5,0.8,0.7,1.6,0.7,2.4c0,1.9-0.9,3.3-2.6,4.2c-1.3,0.7-2.9,1.2-4.5,1.4C284.2,70.5,282.6,70.6,281.1,70.6z M279.3,45.8
		c-1,0-1.9,0.2-2.6,0.5c-0.7,0.3-1.3,0.8-1.8,1.3c-0.5,0.5-0.8,1.1-1,1.8c-0.2,0.7-0.4,1.3-0.4,2l10.8-1.8c-0.1-0.8-0.6-1.7-1.4-2.5
		C282.1,46.3,280.9,45.8,279.3,45.8z"/>
</g>
</svg>
