<?xml version="1.0" encoding="utf-8"?>
<!-- Generator: Adobe Illustrator 21.0.0, SVG Export Plug-In . SVG Version: 6.00 Build 0)  -->
<svg version="1.1" id="Layer_1" xmlns="http://www.w3.org/2000/svg" xmlns:xlink="http://www.w3.org/1999/xlink" x="0px" y="0px"
	 viewBox="0 0 100 99.8" style="enable-background:new 0 0 100 99.8;" xml:space="preserve">
<style type="text/css">
	.st0{fill:#455B65;}
</style>
<path class="st0" d="M87.7,17.5L98.4,6.8c1.5-1.5,1.5-3.8,0-5.2s-3.8-1.5-5.2,0L1.6,93.2c-1.5,1.5-1.5,3.8,0,5.2
	c0.7,0.7,1.7,1,2.6,1s1.9-0.3,2.6-1l10.7-10.7c8.7,7.5,20.1,12,32.5,12c27.4,0,49.8-22.3,49.8-49.8C99.8,37.6,95.1,26.2,87.7,17.5z
	 M87.2,29.7H75.5l7-6.9C84.2,25,85.8,27.3,87.2,29.7z M67.8,50c0,4.6-0.3,8.9-0.8,12.9H42.4l24.7-24.7C67.5,41.8,67.8,45.8,67.8,50z
	 M22.8,82.5l5.9-5.9c1.6,4.9,3.6,9.3,5.9,12.8C30.2,87.7,26.2,85.3,22.8,82.5z M50,92.4c-5.9,0-12.1-8.4-15.4-21.8l0.4-0.4h30.6
	C62.3,83.9,55.9,92.4,50,92.4z M65.5,89.4c3.2-5,5.9-11.5,7.5-19.2h14.1C82.5,78.9,74.8,85.7,65.5,89.4z M74.4,62.9
	c0.5-4.1,0.8-8.4,0.8-12.9s-0.3-8.8-0.8-12.9h16c1.3,4.1,2,8.4,2,12.9s-0.7,8.8-2,12.9H74.4z"/>
<path class="st0" d="M14.3,72.7c-0.5-0.8-1-1.6-1.5-2.4h3.9L24,63H9.7c-1.3-4.1-2-8.4-2-12.9s0.7-8.8,2-12.9h16
	c-0.5,4.1-0.8,8.4-0.8,12.9c0,4,0.2,7.9,0.6,11.5l6.8-6.8c-0.1-1.7-0.1-3.2-0.1-4.8c0-4.6,0.3-8.9,0.8-12.9h16.8l7.3-7.3H34.5
	C37.7,16.2,44.1,7.7,50,7.7c4.9,0,10.2,5.9,13.6,15.7l5.7-5.7c-1.2-2.6-2.4-5-3.8-7.1c2.5,0.9,4.9,2.2,7.2,3.7l5.3-5.3
	C70,3.5,60.4,0.3,50,0.3C22.6,0.3,0.3,22.6,0.3,50c0,10.4,3.2,20,8.7,28.1L14.3,72.7z M34.5,10.6c-3.2,5-5.9,11.5-7.5,19.2H12.8
	C17.5,21.1,25.2,14.3,34.5,10.6z"/>
</svg>
