<?xml version="1.0" encoding="utf-8"?>
<!-- Generator: Adobe Illustrator 21.0.0, SVG Export Plug-In . SVG Version: 6.00 Build 0)  -->
<svg version="1.1" id="Layer_1" xmlns="http://www.w3.org/2000/svg" xmlns:xlink="http://www.w3.org/1999/xlink" x="0px" y="0px"
	 viewBox="0 0 97.5 98.9" style="enable-background:new 0 0 97.5 98.9;" xml:space="preserve">
<style type="text/css">
	.st0{fill:#455B65;}
</style>
<g>
	<path class="st0" d="M95.1,29.9L86,27.5c-1-0.2-2,0.3-2.2,1.3c-0.2,1,0.3,2,1.3,2.2l8.9,2.3v59.9L67.4,82.8V56.6
		c0-1-0.8-1.8-1.8-1.8h-0.1h-0.1c-1,0-1.8,0.8-1.8,1.8v26.2L37.1,93.3V33.4l8-2.1c1-0.2,1.5-1.2,1.3-2.2c-0.2-1-1.2-1.5-2.2-1.3
		l-9.4,2.8L4.2,22.9c-1-0.2-2.1-0.1-2.8,0.5C0.5,24.1,0,25,0,26.1v57.1c0,1.3,0.8,2.5,2.1,3.1l32.5,12.4h0.1h0.1l30.6-12.7l27.5,11
		c0.4,0.1,0.8,0.2,1.2,0.2c0.7,0,1.3-0.2,1.9-0.5c0.9-0.7,1.4-1.6,1.4-2.7V33.1C97.5,31.7,96.5,30.4,95.1,29.9z M32.5,93.4L3.6,82.8
		V26.3l28.9,7V93.4z"/>
	<ellipse transform="matrix(0.8213 -0.5705 0.5705 0.8213 0.7986 40.2436)" class="st0" cx="64.6" cy="18.8" rx="8.7" ry="8.7"/>
	<path class="st0" d="M50.8,28.3C54,37.2,59.1,45.6,66.1,52c7.1-7.5,11.8-17.2,13.9-27.3c1-4.6,1.3-9.5-0.2-13.9
		C77.6,4.6,71.2,0.1,64.8,0c-5.7-0.1-11.3,3.2-14.2,8.1c-1.8,3.1-2.3,6.5-2.1,9.9C48.8,21.5,49.7,25.1,50.8,28.3z M53.1,12.6
		C55.5,8.7,59.9,6,64.6,6c0.1,0,0.3,0,0.4,0c5.3,0.2,10.2,3.8,12.1,8.8c1.3,3.7,0.9,7.9,0,11.8C75.3,34.2,71.3,41.3,66,47
		c-5.6-5.3-9.9-11.8-12.5-19C51.5,23.1,50.3,17.3,53.1,12.6z"/>
</g>
</svg>
